<mxfile host="app.diagrams.net" modified="2023-08-04T16:55:56.253Z" agent="Mozilla/5.0 (Macintosh; Intel Mac OS X 10_15_7) AppleWebKit/537.36 (KHTML, like Gecko) Chrome/115.0.0.0 Safari/537.36" version="21.1.7" etag="1RDbbxutKHcjsK2qwN9r" type="github">
  <diagram name="Page-1" id="4bqlxx7Zy65xLmcgzim_">
    <mxGraphModel>
      <root>
        <mxCell id="0" />
        <mxCell id="1" parent="0" />
      </root>
    </mxGraphModel>
  </diagram>
</mxfile>
